<svg width="197" height="280" viewBox="0 0 197 280" fill="none" xmlns="http://www.w3.org/2000/svg">
<g opacity="0.15">
<path d="M211.091 55.3714C204.452 68.1173 196.818 82.1832 187.871 98.1506C194.494 109.499 201.213 120.896 207.731 131.951C209.882 135.599 212.026 139.234 214.159 142.856H266.188C272.191 133.225 277.231 125.057 281.788 117.57C276.372 95.5641 265.578 75.6524 250.878 59.3165C237.613 57.6814 224.265 56.3571 211.091 55.3714Z" fill="#EBE3DA"/>
<path d="M92.2746 168.058C90.1196 164.402 87.9803 160.771 85.8424 157.142H33.8118C27.799 166.789 22.759 174.958 18.2112 182.429C23.6269 204.434 34.4204 224.345 49.1189 240.681C62.3882 242.317 75.7374 243.642 88.9074 244.627C95.5467 231.881 103.181 217.815 112.125 201.851C105.505 190.505 98.7917 179.112 92.2746 168.058Z" fill="#EBE3DA"/>
<path d="M33.8118 142.856H85.8403C87.9753 139.23 90.1217 135.591 92.2738 131.94C98.7902 120.888 105.507 109.496 112.127 98.1506C103.185 82.1889 95.5488 68.1216 88.9074 55.3714C75.7332 56.3571 62.3846 57.6821 49.1196 59.3172C34.4211 75.6531 23.6276 95.5641 18.2112 117.57C22.7683 125.055 27.8083 133.224 33.8118 142.856Z" fill="#EBE3DA"/>
<path d="M198.748 251.854C192.125 239.118 184.483 225.03 175.497 208.989C158.558 209.229 141.443 209.229 124.502 208.989C115.52 225.024 107.877 239.115 101.252 251.854C107.53 262.429 113.302 272.379 118.789 282.086C128.812 284.454 139.259 285.713 149.996 285.713C160.736 285.713 171.186 284.453 181.212 282.085C186.702 272.371 192.473 262.422 198.748 251.854Z" fill="#EBE3DA"/>
<path d="M266.187 157.142H214.156C212.021 160.768 209.884 164.395 207.731 168.047C201.211 179.105 194.496 190.5 187.873 201.851C196.82 217.82 204.454 231.886 211.091 244.628C224.268 243.641 237.616 242.316 250.877 240.682C265.577 224.346 276.371 204.435 281.787 182.429C277.232 174.945 272.192 166.777 266.187 157.142Z" fill="#EBE3DA"/>
<path d="M118.788 17.9123C113.301 27.6203 107.53 37.5705 101.251 48.1449C107.88 60.8908 115.525 74.986 124.509 91.0219C141.449 90.7819 158.549 90.7819 175.489 91.0219C184.475 74.981 192.121 60.8865 198.747 48.1449C192.469 37.5697 186.697 27.6203 181.211 17.9137C171.184 15.5444 160.734 14.2851 149.995 14.2851C139.259 14.2851 128.812 15.5444 118.788 17.9123Z" fill="#EBE3DA"/>
<path d="M124.487 105.309C117.843 116.696 111.113 128.116 104.58 139.196C102.447 142.814 100.33 146.407 98.2145 149.999C100.33 153.592 102.447 157.185 104.58 160.802C111.113 171.882 117.843 183.303 124.487 194.689C141.442 194.931 158.558 194.931 175.511 194.689C182.158 183.299 188.89 171.875 195.424 160.792C197.555 157.177 199.669 153.588 201.783 149.999C199.669 146.411 197.555 142.821 195.424 139.207C188.889 128.123 182.157 116.7 175.511 105.309C158.557 105.067 141.442 105.067 124.487 105.309Z" fill="#EBE3DA"/>
<path d="M98.6231 24.3939C87.0824 29.1318 76.3325 35.4105 66.6353 42.9813C74.0675 42.2356 81.4889 41.5892 88.8539 41.047C92.2496 35.3291 95.4931 29.7997 98.6231 24.3939Z" fill="#EBE3DA"/>
<path d="M14.7161 160.814C16.8233 157.406 19.0497 153.82 21.4304 149.999C19.0511 146.181 16.8247 142.594 14.7169 139.185C14.434 142.754 14.2854 146.361 14.2854 150.001C14.2854 153.641 14.434 157.246 14.7161 160.814Z" fill="#EBE3DA"/>
<path d="M88.8538 258.952C81.4896 258.41 74.0682 257.763 66.6346 257.017C76.3324 264.589 87.0824 270.867 98.6238 275.605C95.4931 270.199 92.2496 264.67 88.8538 258.952Z" fill="#EBE3DA"/>
<path d="M296.458 117.57C296.42 117.349 296.372 117.13 296.314 116.912C290.431 90.8849 277.762 67.4045 260.271 48.4293C259.904 47.9135 259.472 47.4471 258.981 47.0435C240.024 26.9882 215.609 12.1466 188.137 4.91936C187.857 4.82721 187.574 4.74935 187.285 4.69292C175.359 1.63074 162.865 0 149.996 0C137.145 0 124.667 1.62717 112.755 4.6815C112.45 4.74007 112.152 4.82221 111.858 4.91936C84.3862 12.1473 59.972 26.989 41.0156 47.045C40.5249 47.4485 40.0928 47.9135 39.7263 48.4293C22.2357 67.4045 9.56641 90.8856 3.68428 116.915C3.62713 117.128 3.57999 117.344 3.54285 117.562C1.23 128.013 0 138.865 0 150.001C0 161.137 1.23 171.99 3.54356 182.44C3.58071 182.657 3.62713 182.872 3.68428 183.084C9.56641 209.114 22.2357 232.595 39.7278 251.571C40.0935 252.086 40.5249 252.551 41.0142 252.954C59.9977 273.039 84.4541 287.896 111.974 295.112C112.153 295.168 112.334 295.218 112.518 295.259C124.501 298.353 137.06 300 149.996 300C162.936 300 175.498 298.353 187.485 295.257C187.667 295.216 187.847 295.166 188.025 295.111C215.544 287.893 240 273.038 258.984 252.954C259.473 252.551 259.904 252.086 260.27 251.572C277.763 232.596 290.433 209.114 296.316 183.085C296.373 182.87 296.42 182.655 296.457 182.436C298.77 171.987 300 161.136 300 150.001C299.999 138.868 298.77 128.018 296.458 117.57ZM201.377 275.603C204.508 270.195 207.751 264.667 211.145 258.952C218.51 258.41 225.931 257.763 233.362 257.018C223.665 264.587 212.917 270.865 201.377 275.603ZM211.092 244.628C204.454 231.886 196.821 217.82 187.874 201.851C194.497 190.501 201.212 179.105 207.732 168.047C209.885 164.395 212.022 160.768 214.157 157.142H266.188C272.193 166.777 277.232 174.945 281.789 182.429C276.372 204.435 265.578 224.346 250.879 240.682C237.617 242.316 224.269 243.641 211.092 244.628ZM88.8541 258.952C92.2498 264.67 95.4941 270.2 98.6233 275.605C87.0826 270.867 76.332 264.589 66.6341 257.017C74.0684 257.763 81.4898 258.41 88.8541 258.952ZM88.9084 244.627C75.7377 243.642 62.3891 242.317 49.1199 240.681C34.4213 224.346 23.6278 204.435 18.2121 182.429C22.7607 174.958 27.7999 166.79 33.8128 157.142H85.8434C87.9812 160.772 90.1205 164.403 92.2755 168.058C98.7926 179.112 105.506 190.504 112.127 201.851C103.182 217.815 95.5476 231.881 88.9084 244.627ZM98.6233 24.3939C95.4933 29.7997 92.2498 35.3291 88.8541 41.047C81.4891 41.5892 74.0684 42.2356 66.6356 42.9813C76.3327 35.4105 87.0826 29.1318 98.6233 24.3939ZM88.9076 55.3715C95.5491 68.1217 103.185 82.189 112.128 98.1507C105.508 109.496 98.7905 120.887 92.2741 131.94C90.1212 135.591 87.9755 139.231 85.8405 142.856H33.8121C27.8085 133.224 22.7685 125.055 18.2114 117.57C23.6278 95.5642 34.4213 75.6532 49.1199 59.3173C62.3856 57.6823 75.7334 56.3572 88.9076 55.3715ZM201.785 149.999C199.671 153.588 197.557 157.178 195.426 160.792C188.891 171.875 182.159 183.299 175.513 194.689C158.559 194.931 141.443 194.931 124.488 194.689C117.845 183.303 111.115 171.882 104.582 160.802C102.449 157.184 100.332 153.591 98.2162 149.999C100.332 146.406 102.448 142.813 104.582 139.196C111.115 128.116 117.845 116.696 124.488 105.309C141.443 105.067 158.559 105.067 175.513 105.309C182.16 116.7 188.892 128.123 195.426 139.207C197.556 142.821 199.67 146.411 201.785 149.999ZM21.4307 149.999C19.05 153.82 16.8235 157.407 14.7164 160.814C14.4343 157.246 14.2857 153.641 14.2857 150.001C14.2857 146.36 14.4343 142.754 14.7171 139.185C16.825 142.594 19.0514 146.181 21.4307 149.999ZM278.569 149.999C280.949 146.181 283.175 142.595 285.283 139.185C285.566 142.754 285.714 146.36 285.714 150.001C285.714 153.64 285.566 157.245 285.284 160.813C283.175 157.404 280.949 153.818 278.569 149.999ZM266.188 142.856H214.159C212.026 139.234 209.882 135.598 207.731 131.951C201.213 120.896 194.493 109.499 187.871 98.1507C196.817 82.184 204.452 68.1174 211.091 55.3715C224.264 56.3572 237.612 57.6815 250.877 59.3166C265.577 75.6525 276.371 95.5642 281.787 117.57C277.229 125.057 272.19 133.225 266.188 142.856ZM211.145 41.047C207.75 35.3298 204.507 29.8011 201.377 24.3968C212.916 29.134 223.664 35.4119 233.36 42.9813C225.929 42.2356 218.509 41.5885 211.145 41.047ZM198.748 48.145C192.122 60.8866 184.476 74.9811 175.49 91.022C158.55 90.782 141.45 90.782 124.51 91.022C115.526 74.9861 107.881 60.8909 101.252 48.145C107.53 37.5705 113.302 27.6204 118.789 17.9124C128.813 15.5445 139.26 14.2852 149.997 14.2852C160.737 14.2852 171.187 15.5452 181.212 17.9138C186.698 27.6204 192.47 37.5698 198.748 48.145ZM118.788 282.086C113.301 272.379 107.53 262.429 101.251 251.854C107.877 239.114 115.52 225.024 124.502 208.989C141.443 209.229 158.557 209.229 175.497 208.989C184.482 225.03 192.125 239.119 198.747 251.854C192.473 262.422 186.702 272.371 181.211 282.085C171.185 284.454 160.735 285.713 149.995 285.713C139.259 285.713 128.812 284.454 118.788 282.086Z" fill="white"/>
</g>
</svg>
