<svg width="150" height="150" viewBox="0 0 150 150" fill="none" xmlns="http://www.w3.org/2000/svg">
<path d="M105.546 27.6853C102.226 34.0582 98.4091 41.091 93.9359 49.0746C97.247 54.7489 100.607 60.4471 103.866 65.9746C104.941 67.7985 106.013 69.616 107.08 71.4271H133.094C136.096 66.6117 138.616 62.5274 140.894 58.7842C138.186 47.7814 132.789 37.8257 125.439 29.6578C118.807 28.8403 112.133 28.1782 105.546 27.6853Z" fill="#F1EBE6"/>
<path d="M46.1374 84.0278C45.0599 82.1999 43.9902 80.3846 42.9213 78.5699H16.9059C13.8995 83.3935 11.3795 87.4778 9.10559 91.2132C11.8134 102.216 17.2102 112.171 24.5595 120.339C31.1942 121.157 37.8688 121.819 44.4538 122.312C47.7735 115.939 51.5906 108.906 56.0627 100.924C52.7527 95.251 49.396 89.5546 46.1374 84.0278Z" fill="#F1EBE6"/>
<path d="M16.9059 71.4271H42.9202C43.9877 69.6142 45.061 67.7946 46.137 65.9692C49.3952 60.4432 52.7538 54.7471 56.0638 49.0746C51.5924 41.0939 47.7745 34.0603 44.4538 27.6853C37.8667 28.1782 31.1924 28.8407 24.5599 29.6582C17.2106 37.826 11.8138 47.7814 9.10559 58.7842C11.3842 62.5267 13.9042 66.611 16.9059 71.4271Z" fill="#F1EBE6"/>
<path d="M99.3742 125.925C96.0628 119.557 92.2417 112.513 87.7488 104.493C79.2792 104.613 70.7217 104.613 62.2513 104.493C57.7603 112.51 53.9388 119.556 50.626 125.925C53.7653 131.212 56.651 136.187 59.3945 141.041C64.4063 142.225 69.6299 142.855 74.9981 142.855C80.3681 142.855 85.5931 142.225 90.606 141.04C93.3513 136.184 96.2367 131.209 99.3742 125.925Z" fill="#F1EBE6"/>
<path d="M133.094 78.5699H107.078C106.011 80.3828 104.942 82.1964 103.866 84.0224C100.606 89.551 97.2481 95.2489 93.9366 100.924C98.4102 108.909 102.227 115.941 105.546 122.312C112.134 121.819 118.808 121.156 125.439 120.339C132.789 112.171 138.186 102.216 140.894 91.2132C138.616 87.4714 136.096 83.3871 133.094 78.5699Z" fill="#F1EBE6"/>
<path d="M59.3942 8.95603C56.6506 13.81 53.7649 18.785 50.6256 24.0721C53.9403 30.445 57.7628 37.4925 62.2545 45.5103C70.7249 45.3903 79.2745 45.3903 87.7449 45.5103C92.2378 37.49 96.0606 30.4428 99.3738 24.0721C96.2345 18.7846 93.3488 13.81 90.6056 8.95674C85.5924 7.7721 80.3674 7.14246 74.9978 7.14246C69.6295 7.14246 64.406 7.7721 59.3942 8.95603Z" fill="#F1EBE6"/>
<path d="M62.2435 52.6539C58.9217 58.3471 55.5567 64.0571 52.2903 69.5971C51.2238 71.4061 50.1653 73.2025 49.1074 74.9986C50.1653 76.795 51.2235 78.5914 52.2903 80.4C55.5567 85.94 58.9217 91.65 62.2435 97.3432C70.721 97.4643 79.2792 97.4643 87.756 97.3432C91.0792 91.6482 94.4453 85.9364 97.7124 80.3946C98.7778 78.5875 99.8349 76.7928 100.892 74.9986C99.8349 73.2043 98.7778 71.4096 97.7124 69.6025C94.4449 64.0607 91.0788 58.3489 87.756 52.6539C79.2788 52.5328 70.721 52.5328 62.2435 52.6539Z" fill="#F1EBE6"/>
<path d="M49.3117 12.1968C43.5413 14.5657 38.1663 17.705 33.3177 21.4903C37.0338 21.1175 40.7445 20.7943 44.427 20.5232C46.1249 17.6643 47.7467 14.8996 49.3117 12.1968Z" fill="#F1EBE6"/>
<path d="M142.641 69.5914C141.587 71.2964 140.474 73.0893 139.285 74.9986C140.474 76.9079 141.587 78.7011 142.641 80.4057C142.783 78.6218 142.857 76.8193 142.857 74.9996C142.857 73.1793 142.783 71.3761 142.641 69.5914Z" fill="#F1EBE6"/>
<path d="M100.689 137.799C106.458 135.431 111.833 132.292 116.681 128.507C112.966 128.879 109.256 129.203 105.573 129.473C103.876 132.332 102.254 135.096 100.689 137.799Z" fill="#F1EBE6"/>
<path d="M105.573 20.5232C109.255 20.7943 112.965 21.1175 116.68 21.4904C111.832 17.7057 106.458 14.5668 100.689 12.1982C102.254 14.9004 103.875 17.6647 105.573 20.5232Z" fill="#F1EBE6"/>
<path d="M7.35806 80.4061C8.41163 78.7021 9.52484 76.9089 10.7152 74.9986C9.52556 73.0893 8.41234 71.2961 7.35841 69.5914C7.21699 71.3761 7.1427 73.1793 7.1427 74.9993C7.1427 76.8193 7.21699 78.6218 7.35806 80.4061Z" fill="#F1EBE6"/>
<path d="M44.427 129.474C40.7449 129.203 37.0342 128.88 33.3174 128.507C38.1663 132.292 43.5413 135.432 49.312 137.801C47.7467 135.098 46.1249 132.333 44.427 129.474Z" fill="#F1EBE6"/>
<path d="M148.229 58.7843C148.21 58.6736 148.186 58.5639 148.158 58.4553C145.216 45.4418 138.881 33.7018 130.136 24.2143C129.952 23.9564 129.736 23.7232 129.491 23.5214C120.012 13.4939 107.805 6.07321 94.0686 2.45964C93.9289 2.41357 93.7871 2.37464 93.6429 2.34643C87.6796 0.815357 81.4325 0 74.9982 0C68.5725 0 62.3336 0.813571 56.3775 2.34071C56.2254 2.37 56.0761 2.41107 55.9289 2.45964C42.1932 6.07357 29.9861 13.4943 20.5079 23.5221C20.2625 23.7239 20.0464 23.9564 19.8632 24.2143C11.1179 33.7018 4.78321 45.4421 1.84214 58.4564C1.81357 58.5632 1.79 58.6711 1.77143 58.78C0.615 64.0053 0 69.4314 0 74.9993C0 80.5675 0.615 85.9936 1.77179 91.2189C1.79036 91.3271 1.81357 91.4346 1.84214 91.5407C4.78321 104.555 11.1179 116.296 19.8639 125.784C20.0468 126.041 20.2625 126.274 20.5071 126.475C29.9989 136.517 42.2271 143.946 55.9871 147.554C56.0768 147.582 56.1671 147.607 56.2589 147.627C62.2507 149.174 68.53 149.998 74.9982 149.998C81.4682 149.998 87.7493 149.174 93.7425 147.626C93.8336 147.606 93.9236 147.581 94.0129 147.553C107.772 143.945 120 136.517 129.492 126.475C129.737 126.274 129.952 126.041 130.135 125.784C138.882 116.296 145.217 104.556 148.158 91.5411C148.187 91.4339 148.21 91.3261 148.229 91.2168C149.385 85.9921 150 80.5668 150 74.9993C150 69.4328 149.385 64.0082 148.229 58.7843ZM100.689 137.799C102.254 135.096 103.876 132.331 105.573 129.474C109.255 129.203 112.966 128.88 116.681 128.507C111.833 132.292 106.459 135.431 100.689 137.799ZM105.546 122.312C102.228 115.941 98.4107 108.909 93.9371 100.924C97.2489 95.2493 100.606 89.5511 103.866 84.0225C104.943 82.1964 106.011 80.3828 107.079 78.57H133.094C136.097 83.3871 138.616 87.4714 140.895 91.2132C138.186 102.216 132.789 112.171 125.44 120.339C118.809 121.156 112.135 121.819 105.546 122.312ZM44.4271 129.474C46.125 132.333 47.7471 135.098 49.3118 137.801C43.5414 135.432 38.1661 132.292 33.3171 128.507C37.0343 128.88 40.745 129.203 44.4271 129.474ZM44.4543 122.312C37.8689 121.819 31.1946 121.157 24.56 120.339C17.2107 112.171 11.8139 102.216 9.10607 91.2132C11.3804 87.4778 13.9 83.3936 16.9064 78.57H42.9218C43.9907 80.3846 45.0604 82.2003 46.1379 84.0278C49.3964 89.5546 52.7532 95.2507 56.0636 100.924C51.5911 108.906 47.7739 115.939 44.4543 122.312ZM49.3118 12.1968C47.7468 14.8996 46.125 17.6643 44.4271 20.5232C40.7446 20.7943 37.0343 21.1175 33.3179 21.4904C38.1664 17.705 43.5414 14.5657 49.3118 12.1968ZM44.4539 27.6854C47.7746 34.0604 51.5925 41.0939 56.0639 49.0746C52.7539 54.7471 49.3954 60.4429 46.1371 65.9693C45.0607 67.7946 43.9879 69.6143 42.9204 71.4271H16.9061C13.9043 66.6111 11.3843 62.5268 9.10571 58.7843C11.8139 47.7814 17.2107 37.8261 24.56 29.6582C31.1929 28.8407 37.8668 28.1782 44.4539 27.6854ZM100.893 74.9986C99.8357 76.7928 98.7786 78.5878 97.7132 80.3946C94.4457 85.9361 91.0796 91.6482 87.7568 97.3432C79.2796 97.4643 70.7218 97.4643 62.2443 97.3432C58.9225 91.6503 55.5575 85.94 52.2911 80.4C51.2246 78.5911 50.1661 76.7946 49.1082 74.9986C50.1661 73.2021 51.2243 71.4057 52.2911 69.5971C55.5575 64.0571 58.9225 58.3471 62.2443 52.6539C70.7214 52.5328 79.2796 52.5328 87.7568 52.6539C91.08 58.3489 94.4461 64.0607 97.7132 69.6025C98.7782 71.4096 99.8354 73.2043 100.893 74.9986ZM10.7154 74.9986C9.525 76.9089 8.41179 78.7021 7.35821 80.4061C7.21714 78.6218 7.14286 76.8193 7.14286 74.9993C7.14286 73.1789 7.21714 71.3761 7.35857 69.5914C8.4125 71.2961 9.52571 73.0893 10.7154 74.9986ZM139.285 74.9986C140.475 73.0896 141.588 71.2964 142.642 69.5914C142.783 71.3761 142.858 73.1789 142.858 74.9993C142.858 76.8189 142.783 78.6214 142.642 80.4053C141.588 78.7011 140.475 76.9078 139.285 74.9986ZM133.094 71.4271H107.08C106.013 69.6161 104.941 67.7982 103.866 65.9746C100.607 60.4471 97.2468 54.7489 93.9357 49.0746C98.4089 41.0914 102.226 34.0582 105.546 27.6854C112.133 28.1782 118.806 28.8404 125.439 29.6579C132.789 37.8257 138.186 47.7814 140.894 58.7843C138.615 62.5275 136.095 66.6118 133.094 71.4271ZM105.573 20.5232C103.875 17.6646 102.254 14.9004 100.689 12.1982C106.458 14.5668 111.832 17.7057 116.68 21.4904C112.965 21.1175 109.255 20.7939 105.573 20.5232ZM99.3743 24.0721C96.0611 30.4429 92.2382 37.49 87.7454 45.5103C79.275 45.3904 70.7254 45.3904 62.255 45.5103C57.7632 37.4925 53.9407 30.445 50.6261 24.0721C53.7654 18.785 56.6511 13.81 59.3946 8.95607C64.4064 7.77214 69.63 7.1425 74.9986 7.1425C80.3686 7.1425 85.5936 7.7725 90.6064 8.95678C93.3493 13.81 96.235 18.7846 99.3743 24.0721ZM59.3943 141.041C56.6507 136.187 53.765 131.212 50.6257 125.925C53.9386 119.555 57.76 112.51 62.2511 104.493C70.7214 104.613 79.2789 104.613 87.7486 104.493C92.2414 112.513 96.0625 119.558 99.3739 125.925C96.2368 131.209 93.3511 136.184 90.6057 141.04C85.5925 142.225 80.3675 142.855 74.9979 142.855C69.6296 142.855 64.4061 142.225 59.3943 141.041Z" fill="white"/>
</svg>
