<svg width="113" height="118" viewBox="0 0 113 118" fill="none" xmlns="http://www.w3.org/2000/svg">
<path d="M21.1846 0V6.06593H0V29.5758V37.0484V117.543H98.4198C106.321 117.543 112.747 111.112 112.747 103.213V37.0484V29.5758V6.06593H91.5604V0H84.0901V6.06593H60.1099V0H52.6396V6.06593H28.6571V0H21.1846ZM105.273 103.215C105.273 106.993 102.2 110.07 98.4198 110.07H7.47253V37.0484H105.273V103.215ZM52.6374 13.5385V19.9253H60.1077V13.5385H84.0879V19.9253H91.5582V13.5385H105.27V29.5758H7.47253V13.5385H21.1846V19.9253H28.6571V13.5385H52.6374Z" fill="white"/>
<path d="M38.1583 45.7671H14.8066V69.1187H38.1583V45.7671ZM30.6858 61.6462H22.2792V53.2418H30.6858V61.6462Z" fill="white"/>
<path d="M68.0483 45.7671H44.6967V69.1187H68.0483V45.7671ZM60.5758 61.6462H52.1692V53.2418H60.5758V61.6462Z" fill="white"/>
<path d="M97.9384 45.7671H74.5868V69.1187H97.9384V45.7671ZM90.4659 61.6462H82.0593V53.2418H90.4659V61.6462Z" fill="white"/>
<path d="M38.1583 77.2373H14.8066V100.589H38.1583V77.2373ZM30.6858 93.1142H22.2792V84.7054H30.6858V93.1142Z" fill="white"/>
<path d="M68.0483 77.2373H44.6967V100.589H68.0483V77.2373ZM60.5758 93.1142H52.1692V84.7054H60.5758V93.1142Z" fill="white"/>
<path d="M97.9384 77.2373H74.5868V100.589H97.9384V77.2373ZM90.4659 93.1142H82.0593V84.7054H90.4659V93.1142Z" fill="white"/>
</svg>
