<svg width="173" height="110" viewBox="0 0 173 110" fill="none" xmlns="http://www.w3.org/2000/svg">
<path d="M58.8666 71.2497C58.6807 71.1117 55.5755 67.9071 54.8047 66.7657C54.0503 65.6243 52.5961 65.3233 51.8362 64.8655C51.0709 64.4077 46.0195 62.5012 44.8059 63.4921C43.6087 64.4767 41.9577 65.085 41.3181 63.4921C40.6894 61.8867 40.3723 61.6609 39.4867 61.4351C38.601 61.2094 39.0439 59.9927 38.9837 58.9266C38.9127 57.8542 38.4097 56.7191 37.7756 57.4842C37.1414 58.2493 34.9875 60.2248 34.6759 59.2214C34.3588 58.243 32.8335 54.1291 35.1187 53.364C37.3929 52.6051 39.2953 53.0567 39.8693 53.7402C40.4379 54.4238 40.8752 56.3303 41.5805 56.0982C42.2802 55.8662 41.8975 54.4176 42.149 53.2072C42.4005 52.0031 44.0569 50.3977 44.8059 48.7232C45.5658 47.0425 45.6915 46.0579 46.6373 45.5938C47.5994 45.1423 48.1024 44.534 48.988 43.7689C49.8791 43.0038 51.2622 42.3328 51.7816 41.9377C52.29 41.5489 54.5642 40.2632 55.3186 40.4953C56.0785 40.7273 56.5814 40.4138 55.9528 39.1219C55.3186 37.83 54.4986 33.9481 53.2959 32.1984C52.0932 30.4487 51.962 29.9783 51.3934 28.3164C50.8249 26.6357 50.1853 25.1933 49.7424 26.3347C49.2996 27.4824 48.3539 29.0063 47.8454 27.5513C47.3425 26.1089 47.4026 26.1779 46.7685 25.4944C46.1398 24.8171 45.6259 24.654 44.7458 24.353C43.8601 24.0457 42.9745 24.4282 43.0346 25.4191C43.0948 26.4162 42.2037 28.1722 42.7832 29.4641C43.3517 30.7622 43.8601 32.1357 43.0948 32.5872C42.3404 33.0387 43.0948 35.7918 42.3404 35.704C41.5805 35.635 41.2033 35.7918 41.2033 34.7884C41.2033 33.8038 41.5805 32.2799 40.181 32.2799C38.7924 32.2799 37.9669 31.4458 36.9555 30.6055C35.9387 29.7714 35.1187 30.2166 35.3701 28.3227C35.6216 26.4162 35.2499 25.7327 36.3815 24.6665C37.5241 23.6067 37.781 22.9921 38.601 23.4499C39.4265 23.9077 39.9896 23.9077 40.509 23.3747C41.0119 22.8416 41.9577 23.0674 41.9577 22.3838C41.9577 21.7065 40.8807 21.7065 41.0119 20.5651C41.1322 19.4112 41.6461 20.0258 41.8319 18.1193C42.0178 16.2191 40.6292 13.3281 39.2352 13.7043C37.8357 14.0932 35.6927 16.2944 35.2499 15.3035C34.8016 14.3126 33.916 14.7705 32.2049 15.454C30.4937 16.1376 23.4033 14.7705 22.9003 14.0806C22.9003 14.0806 21.6921 13.096 21.058 13.6291C20.4293 14.1621 17.8927 13.9301 17.1328 13.7796C16.3675 13.6291 15.6732 14.7642 14.7329 14.3942C13.7707 14.0053 10.4195 13.2465 9.66513 12.6382C8.8943 12.0299 7.75174 12.0299 7.25972 11.7289C6.75131 11.4153 4.90899 11.2711 4.53724 11.8731C4.16003 12.4814 2.76599 13.5538 2.06624 14.3064C1.37195 15.0715 0.557391 14.9272 1.24621 16.5264C1.9405 18.1193 -0.52504 19.1165 0.103645 20.8599C0.73233 22.597 -0.0220924 27.3193 2.50905 28.2412C5.04566 29.1568 7.13398 29.6836 8.58816 28.3227C10.0533 26.9493 12.2673 26.9493 12.9616 28.4732C13.6559 29.9909 14.0386 32.2736 16.3128 33.5655C18.587 34.8699 20.555 38.6014 20.4293 40.2758C20.309 41.9502 20.5004 47.5003 22.8292 50.7049C25.18 53.9033 27.5854 59.6917 27.7658 58.3183C27.9571 56.9449 27.9571 55.5715 28.471 56.5623C28.9685 57.5595 30.3024 60.6073 32.4563 61.1341C34.6157 61.6672 35.6927 61.8114 36.5072 62.7395C37.3273 63.6489 38.0325 64.1757 38.9127 64.6398C39.7983 65.0976 41.9522 66.471 42.395 67.3866C42.8433 68.3022 42.652 69.5188 42.2037 70.8922C41.7663 72.2656 41.2579 73.6328 41.8866 74.9309C42.5262 76.2228 43.8547 79.9605 44.9371 80.7946C46.0141 81.635 47.0801 83.0021 46.8286 84.9086C46.5771 86.7962 45.3744 94.9426 45.5002 96.7738C45.6314 98.5925 44.0515 104.607 45.3143 107.046C46.5771 109.486 48.742 110.251 49.6878 109.931C50.6335 109.636 49.8791 109.555 49.4308 108.413C48.988 107.266 49.0481 105.823 49.5566 104.763C50.0704 103.691 50.0705 103.083 49.8135 101.866C49.5566 100.656 49.6878 99.9597 50.3165 99.0566C50.9561 98.141 53.613 95.7077 54.4384 94.6416C55.253 93.5755 60.4574 86.2632 61.1517 85.6486C61.846 85.0403 63.4259 83.5979 63.9398 81.3214C64.4482 79.0386 66.2796 74.5484 65.0168 73.3945C63.743 72.2468 59.0579 71.4065 58.8666 71.2497Z" fill="white"/>
<path d="M71.5278 7.00661C71.8886 6.20388 72.7633 4.17826 73.2334 3.06824H53.1702C53.4107 4.29114 54.2799 8.82528 54.1159 10.6628C53.9246 12.8013 54.4986 12.0425 55.0016 12.8828C55.51 13.7169 55.3842 15.015 55.0672 15.9996C54.7446 16.9905 54.5587 19.198 55.581 21.788C56.5869 24.3781 57.7896 27.6454 58.801 27.8022C59.8233 27.9527 59.5664 29.6272 60.2661 29.0188C60.9604 28.398 61.0807 27.0434 61.6602 25.0617C62.2287 23.0862 62.2287 21.6313 63.6883 20.6467C65.148 19.6558 69.1934 16.4637 70.0791 15.3098C70.9702 14.1684 71.9815 13.7106 71.6644 11.7414C71.3364 9.75344 71.0248 8.15426 71.5278 7.00661Z" fill="white"/>
<path d="M170.308 15.9934C169.548 15.3851 164.994 11.2021 163.026 11.7352C161.074 12.2683 157.581 10.5123 157.012 10.1297C156.444 9.74719 151.764 8.10411 149.293 7.9975C148.063 7.94733 142.897 6.63036 140.738 5.57051C138.584 4.50439 136.752 -0.744675 132.641 0.0894063C132.111 0.20229 127.136 1.00501 125.868 2.30317C124.611 3.60133 124.031 5.11271 123.337 5.42C122.643 5.72729 120.614 5.57052 120.614 6.71816C120.614 7.85954 121.314 11.3652 120.494 10.6753C119.669 9.99177 118.843 8.39259 118.471 9.60922C118.094 10.8321 117.444 11.5157 117.072 11.0516C116.7 10.6001 114.781 11.0516 114.535 11.8167C114.284 12.5818 111.813 14.319 110.747 14.5635C109.67 14.7893 109.221 15.4039 108.653 15.7112C108.084 16.0122 103.771 18.3012 102.956 17.4546C102.131 16.6205 101.88 17.1536 101.371 17.3104C101.371 17.3104 99.8513 17.0031 98.9055 15.6297C97.9489 14.2625 97.763 14.7141 96.686 13.4222C95.6145 12.1303 95.3576 10.8384 94.2806 11.3715C93.2146 11.8982 88.6553 17.3041 86.8785 19.7374C85.1127 22.1832 81.942 24.6854 83.5219 26.4351C85.1127 28.1848 85.9273 27.959 86.1241 28.9373C86.3209 29.9219 86.5068 30.9943 86.7583 31.3831C87.0097 31.7657 88.5295 33.1266 89.2894 31.3016C90.0602 29.4704 90.175 28.1848 91.0661 28.4921C91.9518 28.7931 92.1376 29.4829 91.6893 30.8501C91.2465 32.2235 90.9349 34.3495 89.4151 34.2742C87.8954 34.199 86.2553 33.1266 85.736 33.3586C85.233 33.5844 84.9269 34.1174 84.3474 34.6505C83.7788 35.1836 82.0021 37.6921 80.7994 38.0746C79.6022 38.4634 78.148 38.1499 78.968 39.285C79.7881 40.4201 80.9908 42.9411 79.8537 42.8659C78.7166 42.7844 76.8141 42.5649 76.6884 43.8567C76.5626 45.1424 76.0597 45.9075 76.3112 46.8231C76.5626 47.7387 77.3881 49.4884 78.394 48.8801C79.4218 48.2592 81.3789 47.6634 81.8818 46.29C82.3903 44.9166 82.9643 43.4052 84.2271 43.4742C85.49 43.5495 88.535 45.4559 88.3436 46.1395C88.1523 46.8231 87.5236 48.4222 88.2835 47.8892C89.0379 47.3561 89.6721 46.7478 90.1149 46.522C90.5577 46.29 91.1372 47.2871 91.3176 47.6634C91.5089 48.0522 92.7772 48.8048 93.0287 47.5819C93.2857 46.3653 93.5371 47.2871 94.2861 47.6634C95.0569 48.0522 97.3311 48.347 97.6373 48.6543C97.9653 48.9553 98.6595 49.8709 97.7685 51.0875C96.8828 52.3042 95.8605 52.7745 94.4118 51.8526C92.9522 50.937 91.3668 52.6177 89.7322 51.7021C88.0812 50.7865 88.8411 49.4946 86.8785 48.5853C84.9269 47.6697 80.4878 48.8048 79.0883 49.2626C77.6943 49.7141 77.6341 49.8772 77.0656 50.6297C76.497 51.3948 72.7632 56.3366 72.7632 59.1524C72.7632 61.9682 74.1518 69.5879 78.6455 68.8228C83.1447 68.0577 85.8672 68.5155 85.3642 70.0331C84.8503 71.5633 85.1127 71.9396 85.9328 73.6893C86.7528 75.4327 88.6607 87.0848 88.9723 88.9787C89.2949 90.8914 88.7263 93.3184 90.8146 92.9359C92.9084 92.5596 95.1225 91.9576 96.0027 89.7438C96.8938 87.5363 97.025 85.0278 98.1621 83.7359C99.3046 82.4377 100.699 82.4377 100.819 80.6128C100.939 78.7816 100.502 74.4544 101.262 73.451C102.022 72.4664 105.564 67.8946 105.941 66.0697C106.324 64.2447 106.827 63.7869 105.373 63.7869C103.919 63.7869 101.448 63.5611 100.742 62.0372C100.054 60.5133 98.4026 57.6222 98.4026 56.9449C98.4026 56.2614 99.4194 56.3304 99.9169 57.779C100.425 59.2151 102.191 63.5674 104.219 62.6393C106.247 61.7237 109.101 60.6701 109.161 59.2151C109.221 57.779 108.276 56.0983 107.253 56.1861C106.237 56.2614 105.165 55.421 105.165 54.5869C105.165 53.7466 105.351 54.0601 106.554 54.5869C107.767 55.12 108.139 56.023 109.976 56.1861C111.813 56.3303 113.907 58.3873 114.912 59.3092C115.929 60.2248 117.695 66.4648 118.143 67.0668C118.581 67.6877 119.1 67.6877 119.537 66.4585C119.986 65.2356 121.883 61.3662 122.96 60.2875C124.037 59.2214 124.097 57.7853 124.725 58.6946C125.36 59.6102 128.082 61.893 128.273 63.2664C128.465 64.6335 128.148 67.5999 128.716 66.6905C129.285 65.7749 129.733 63.8747 130.225 64.7151C130.739 65.5617 130.739 66.8536 131.936 65.8627C133.144 64.8781 135.233 64.4893 134.096 62.3571C132.958 60.2248 133.718 58.9329 134.424 58.8577C135.118 58.7761 139.868 57.7916 139.994 54.8127C140.12 51.8464 138.343 50.2472 139.185 48.7233C139.994 47.1993 141.197 45.8322 141.459 46.7478C141.711 47.6634 140.825 50.6235 141.962 50.1719C143.105 49.7141 144.433 49.7141 144.433 48.7923C144.433 47.8766 144.176 45.5876 144.69 44.9918C145.199 44.3835 148.922 40.3511 149.37 38.7519C149.813 37.1527 150.638 35.7856 149.938 34.569C149.239 33.3523 148.041 33.7286 148.987 32.211C149.938 30.687 151.524 29.2823 152.726 29.1631C156.57 28.7806 155.487 34.2366 155.547 35.4469C155.624 36.6636 155.624 39.7177 156.187 38.1938C156.756 36.6698 157.417 34.801 158.56 33.5091C159.702 32.2172 160.325 31.3769 160.402 30.2355C160.467 29.0941 160.517 28.7179 161.605 28.1033C162.682 27.4949 167.427 25.3627 167.87 23.9203C168.307 22.4842 167.301 21.1735 168.438 21.2613C169.575 21.3303 170.652 22.7789 171.226 22.0201C171.8 21.2613 173.063 19.8941 172.997 19.129C172.921 18.3577 171.079 16.6017 170.308 15.9934Z" fill="white"/>
<path d="M149.867 41.5678C149.485 42.5649 149.299 42.7154 148.73 44.7724C148.151 46.8231 148.342 46.2901 147.768 47.5819C147.2 48.8801 146.259 49.0181 145.303 49.871C144.346 50.7113 144.094 52.3732 144.094 52.3732C143.274 53.6651 147.451 50.542 148.905 49.5574C150.365 48.5728 149.988 47.4252 150.113 45.826C150.239 44.2268 150.633 43.9948 151.251 43.3112C151.879 42.6339 151.376 41.2605 151.076 40.2759C150.742 39.2788 150.239 40.5832 149.867 41.5678Z" fill="white"/>
<path d="M136.884 76.1225C137.321 75.7399 137.004 74.9058 137.698 75.0564C138.398 75.2006 139.027 75.6709 139.863 75.1379C140.678 74.5986 141.378 74.8243 141.252 73.9213C141.131 73.0056 141.252 71.789 141.066 71.0365C140.875 70.2714 139.737 70.0393 138.907 70.886C138.092 71.7263 136.955 73.0182 136.955 72.5541C136.955 72.1088 137.452 70.8859 137.201 70.1208C136.955 69.362 137.321 68.6785 136.064 69.2868C134.795 69.8951 134.101 69.7446 133.658 70.5849C133.216 71.4253 132.707 72.8677 131.953 71.9521C131.187 71.0427 128.973 69.1425 128.973 69.1425C128.793 68.9105 126.262 66.5462 127.147 68.1517C128.028 69.7571 129.356 72.4914 129.996 73.4823C130.619 74.4731 131.319 75.6145 132.078 75.0814C132.844 74.5484 132.97 74.3979 133.986 75.0814C134.976 75.7462 136.441 76.505 136.884 76.1225Z" fill="white"/>
<path d="M152.404 73.9966C151.19 73.3882 151.699 72.8489 150.239 72.5542C148.78 72.2594 147.582 72.5542 147.194 72.2531C146.812 71.9458 144.92 71.187 145.171 72.2531C145.428 73.3255 147.134 73.6203 147.571 73.9276C148.014 74.2349 146.943 74.9184 147.757 75.4452C148.577 75.972 149.151 76.9692 150.228 76.6619C151.305 76.3546 151.688 77.0444 152.563 77.1949C153.454 77.3454 154.339 77.0444 153.973 76.5803C153.59 76.1288 153.344 75.5142 153.405 74.9874C153.465 74.4544 153.596 74.5986 152.404 73.9966Z" fill="white"/>
<path d="M151.764 80.7695C151.322 79.2456 150.245 76.4361 149.999 77.7969C149.742 79.1704 148.031 80.1487 147.391 80.0734C146.811 80.0044 147.139 79.3146 147.139 78.7C147.139 78.0917 146.806 77.4834 145.363 77.9412C143.898 78.399 143.597 79.9982 143.203 79.8476C142.832 79.7034 141.809 79.3898 141.181 80.2365C140.552 81.0768 139.972 82.6697 139.223 82.977C138.453 83.2843 135.922 83.6606 135.922 84.8898C135.922 86.1001 136.561 87.9251 136.496 88.9222C136.43 89.9193 135.271 92.1896 136.813 92.8794C137.698 93.2808 138.327 93.3372 139.355 92.7352C140.366 92.1206 144.729 90.5214 145.303 91.0482C145.871 91.5812 146.795 92.8355 147.205 93.1052C148.009 93.6508 148.227 94.9301 149.304 95.2311C150.365 95.5384 151.201 95.6889 151.639 95.6889C152.087 95.6889 153.661 95.0806 154.044 94.0082C154.421 92.9358 155.121 90.4336 155.438 89.2107C155.766 87.9941 156.067 86.6269 155.121 85.5545C154.17 84.5009 152.207 82.2934 151.764 80.7695Z" fill="white"/>
</svg>
