<svg width="390" height="678" viewBox="0 0 390 678" fill="none" xmlns="http://www.w3.org/2000/svg">
<path d="M614 352.67L330.986 0L-140 377.961L143.014 730.631L614 352.67Z" fill="#232F59"/>
<path d="M614 352.67L143.014 730.631L-140 377.961" fill="#232F59"/>
<path d="M145 687.624L-97.5837 385.335C-99.2756 383.226 -98.8721 380.094 -96.6821 378.337L321.972 42.3711C324.162 40.6136 327.308 40.898 329 43.0064L571.583 345.295C573.275 347.404 572.871 350.536 570.681 352.293L152.027 688.259C149.837 690.016 146.692 689.732 145 687.624ZM-86.5917 382.789L149.866 677.444L560.591 347.841L324.133 53.1861L-86.5917 382.789Z" fill="white"/>
<path d="M354.327 519.641L111.744 217.352C110.052 215.244 110.455 212.111 112.645 210.354C114.835 208.596 117.981 208.881 119.673 210.989L362.256 513.278C363.948 515.386 363.545 518.519 361.355 520.276C359.165 522.033 356.019 521.749 354.327 519.641Z" fill="white"/>
<path d="M180.704 410.492C156.722 380.607 162.465 336.028 193.507 311.117C224.549 286.206 269.314 290.253 293.297 320.138C317.28 350.023 311.536 394.602 280.494 419.513C249.452 444.424 204.687 440.378 180.704 410.492ZM285.368 326.501C264.764 300.826 226.301 297.349 199.633 318.75C172.964 340.152 168.03 378.455 188.633 404.129C209.237 429.804 247.7 433.281 274.368 411.88C301.037 390.478 305.971 352.176 285.368 326.501Z" fill="white"/>
<path d="M335.322 286.416C319.536 266.746 316.074 239.667 326.282 215.746C327.375 213.187 330.322 211.914 332.863 212.904C335.399 213.888 336.579 216.772 335.486 219.33C326.714 239.886 329.689 263.154 343.251 280.053C356.812 296.952 378.884 304.896 400.853 300.782C403.589 300.271 406.143 302.041 406.558 304.735C406.973 307.431 405.094 310.031 402.359 310.544C376.793 315.331 351.107 306.086 335.322 286.416Z" fill="white"/>
<path d="M137.566 517.55C136.49 516.209 136.182 514.318 136.924 512.573C145.696 492.017 142.724 468.749 129.161 451.849C115.598 434.948 93.5278 427.006 71.559 431.12C68.8228 431.631 66.2667 429.862 65.8532 427.167C65.4385 424.471 67.3176 421.871 70.0525 421.358C95.617 416.572 121.303 425.817 137.089 445.487C152.874 465.157 156.336 492.236 146.128 516.157C145.035 518.716 142.088 519.989 139.547 518.999C138.74 518.685 138.069 518.177 137.566 517.55Z" fill="white"/>
<path d="M424.508 339.077L303.216 187.932C301.525 185.824 301.928 182.691 304.118 180.934L382.616 117.94C384.806 116.183 387.951 116.467 389.643 118.576C391.335 120.684 390.932 123.817 388.742 125.574L314.208 185.386L429.374 328.897L503.907 269.085C506.097 267.327 509.243 267.612 510.935 269.72C512.627 271.829 512.223 274.961 510.033 276.718L431.536 339.712C429.346 341.469 426.2 341.185 424.508 339.077Z" fill="white"/>
<path d="M450.348 276.933L369.486 176.17C367.794 174.062 368.198 170.929 370.388 169.172L402.834 143.135C405.024 141.377 408.169 141.661 409.861 143.77C411.553 145.878 411.149 149.011 408.959 150.768L380.478 173.624L455.214 266.753L483.695 243.897C485.885 242.14 489.03 242.424 490.722 244.533C492.414 246.641 492.011 249.774 489.821 251.531L457.375 277.568C455.185 279.326 452.039 279.041 450.348 276.933Z" fill="white"/>
<path d="M64.1381 586.862C62.4461 584.754 62.8497 581.621 65.0397 579.864L93.5208 557.008L18.7855 463.879L-9.69568 486.734C-11.8857 488.492 -15.0312 488.207 -16.7231 486.099C-18.4151 483.991 -18.0115 480.858 -15.8215 479.101L16.6242 453.063C18.8142 451.306 21.9596 451.59 23.6516 453.699L104.513 554.462C106.205 556.57 105.801 559.702 103.611 561.46L71.1655 587.497C68.9755 589.255 65.83 588.97 64.1381 586.862Z" fill="white"/>
<path d="M84.352 612.048C82.66 609.94 83.0636 606.808 85.2536 605.05L159.787 545.238L44.6208 401.727L-29.9123 461.539C-32.1023 463.297 -35.2478 463.012 -36.9398 460.904C-38.6317 458.796 -38.2282 455.663 -36.0382 453.906L42.4595 390.912C44.6495 389.155 47.795 389.439 49.4869 391.547L170.779 542.692C172.471 544.8 172.067 547.933 169.877 549.69L91.3795 612.684C89.1895 614.441 86.044 614.157 84.352 612.048Z" fill="white"/>
</svg>
