<svg width="104" height="143" viewBox="0 0 104 143" fill="none" xmlns="http://www.w3.org/2000/svg">
<path d="M99.7458 4H4V139.467H99.7458V4Z" fill="#F1EBE6" stroke="white" stroke-width="6.77335" stroke-miterlimit="10" stroke-linecap="round" stroke-linejoin="round"/>
<path d="M42.3169 69.0309C43.3984 68.4958 44.6424 68.1639 45.4371 67.2563C46.548 65.9829 46.3628 64.066 46.0738 62.3998C45.9203 61.5102 45.751 60.6094 45.3333 59.8124C44.5769 58.3742 43.1206 57.4711 41.7321 56.6334C39.9756 55.5745 38.2167 54.5156 36.4602 53.459C35.3539 52.7929 34.2069 52.084 33.5296 50.9845C32.8522 49.8827 32.8252 48.2683 33.8208 47.4442C34.7285 46.6947 36.0583 46.864 37.203 46.5795C39.7249 45.9496 41.0277 43.2606 42.3733 41.0367C44.4392 37.6184 47.3337 34.7081 50.7407 32.6264C51.8018 31.9784 52.9578 31.3643 53.6238 30.3167C54.1883 29.4226 54.3215 28.3366 54.5586 27.3093C54.9785 25.4828 55.771 23.742 56.8705 22.2248C57.374 21.5317 57.952 20.8611 58.2004 20.0415C58.3878 19.4207 58.3697 18.7546 58.32 18.1089C58.3133 18.0411 58.2929 17.9689 58.2862 17.8989C56.2067 17.5151 54.0686 17.2893 51.8786 17.2893C32.4436 17.2893 16.6865 33.0464 16.6865 52.4791C16.6865 64.6598 22.8751 75.3866 32.2765 81.7061C32.3781 81.609 32.4887 81.5255 32.5858 81.4261C36.2683 77.5947 37.553 71.3971 42.3169 69.0309Z" fill="#F1EBE6" stroke="white" stroke-width="6.77335" stroke-miterlimit="10" stroke-linecap="round" stroke-linejoin="round"/>
<path d="M68.2926 71.5935C67.1976 68.8571 67.8433 65.7662 67.5701 62.8311C67.4459 61.4764 67.0801 60.0675 66.1115 59.1125C64.8404 57.8594 62.8965 57.6946 61.1331 57.4237C59.3698 57.155 57.3943 56.5115 56.7056 54.8656C56.376 54.0686 56.4121 53.1768 56.4799 52.3166C56.8388 47.7784 57.8774 43.3261 58.916 38.894C59.4962 36.415 60.2639 33.6718 62.4494 32.3713C63.1945 31.931 64.0434 31.7008 64.8743 31.4547C68.5026 30.3777 72.0044 28.8785 75.2849 26.9955C75.4475 26.903 75.6078 26.8059 75.7681 26.7088C70.9771 22.2723 64.9714 19.1339 58.2816 17.8989C58.2883 17.9689 58.3087 18.0412 58.3154 18.1089C58.3651 18.7546 58.3832 19.4207 58.1958 20.0416C57.9474 20.8611 57.3694 21.5317 56.8659 22.2248C55.7664 23.7421 54.9739 25.4828 54.554 27.3094C54.3169 28.3367 54.1837 29.4249 53.6192 30.3167C52.9555 31.3666 51.7972 31.9785 50.7361 32.6264C47.3291 34.7081 44.4323 37.6184 42.3687 41.0367C41.0231 43.2606 39.7226 45.9496 37.1984 46.5795C36.0537 46.864 34.7239 46.6947 33.8162 47.4443C32.8228 48.2684 32.8476 49.8827 33.525 50.9845C34.2023 52.0817 35.3493 52.793 36.4556 53.459C38.2144 54.5179 39.9709 55.5768 41.7275 56.6334C43.116 57.4711 44.5723 58.3742 45.3287 59.8124C45.7486 60.6094 45.9157 61.5102 46.0692 62.3998C46.356 64.0661 46.5411 65.9829 45.4325 67.2563C44.6378 68.1639 43.3937 68.4958 42.3123 69.0309C37.5483 71.3971 36.2659 77.5947 32.579 81.4261C32.4819 81.5255 32.3713 81.609 32.2697 81.7061C37.8712 85.4698 44.6129 87.6689 51.8717 87.6689C61.5034 87.6689 70.2207 83.7946 76.5741 77.527C73.0384 76.6577 69.6111 74.8899 68.2926 71.5935Z" fill="#F1EBE6" stroke="white" stroke-width="6.77335" stroke-miterlimit="10" stroke-linecap="round" stroke-linejoin="round"/>
<path d="M87.0661 52.4791C87.0661 42.2784 82.704 33.1299 75.7704 26.7087C75.6101 26.8058 75.4498 26.9029 75.2872 26.9955C72.0067 28.8785 68.5048 30.3776 64.8766 31.4546C64.0457 31.7007 63.1968 31.931 62.4517 32.3713C60.2639 33.6717 59.4963 36.4149 58.9183 38.894C57.8797 43.326 56.8411 47.7806 56.4821 52.3165C56.4144 53.1767 56.376 54.0685 56.7079 54.8655C57.3965 56.5115 59.3721 57.1549 61.1354 57.4236C62.8988 57.6945 64.845 57.8594 66.1138 59.1124C67.0847 60.0697 67.4505 61.4786 67.5724 62.831C67.8456 65.7661 67.1998 68.857 68.2949 71.5934C69.6134 74.8898 73.0407 76.6577 76.5809 77.5269C83.0472 71.1464 87.0661 62.2846 87.0661 52.4791Z" fill="#F1EBE6" stroke="white" stroke-width="6.77335" stroke-miterlimit="10" stroke-linecap="round" stroke-linejoin="round"/>
<path d="M27.3884 104.731C28.9327 106.04 29.7026 108.057 29.7026 110.773C29.7026 113.489 28.9079 115.478 27.3251 116.738C25.7402 117.998 23.3221 118.628 20.0686 118.628H17.1425V124.764H12.2341V102.764H20.0054C23.3876 102.762 25.844 103.419 27.3884 104.731ZM23.7849 113.385C24.372 112.726 24.6677 111.759 24.6677 110.491C24.6677 109.222 24.2839 108.319 23.5163 107.783C22.7531 107.248 21.561 106.982 19.9445 106.982H17.1448V114.376H20.4502C22.0848 114.374 23.1979 114.047 23.7849 113.385Z" fill="white"/>
<path d="M47.9251 124.762L45.8796 120.012H36.6588L34.6132 124.762H29.391L38.8963 102.762H43.6466L53.1496 124.762H47.9251ZM41.2827 109.307L38.5124 115.697H44.0192L41.2827 109.307Z" fill="white"/>
<path d="M60.6861 107.154C60.2143 107.542 59.9772 108.054 59.9772 108.696C59.9772 109.337 60.2684 109.845 60.8442 110.222C61.4244 110.601 62.7565 111.046 64.8427 111.561C66.9334 112.076 68.5523 112.845 69.706 113.873C70.862 114.902 71.4354 116.401 71.4354 118.375C71.4354 120.346 70.6972 121.944 69.2183 123.173C67.7395 124.398 65.791 125.015 63.3797 125.015C59.9004 125.015 56.7621 123.723 53.9692 121.143L56.8976 117.553C59.2705 119.63 61.4606 120.671 63.4745 120.671C64.3754 120.671 65.0866 120.477 65.5991 120.086C66.1139 119.698 66.3712 119.176 66.3712 118.515C66.3712 117.853 66.0958 117.329 65.5517 116.941C65.0075 116.553 63.9261 116.16 62.3117 115.76C59.7492 115.151 57.8775 114.363 56.6921 113.385C55.5068 112.407 54.9152 110.879 54.9152 108.79C54.9152 106.702 55.6648 105.092 57.1663 103.959C58.6654 102.825 60.5371 102.259 62.7836 102.259C64.2489 102.259 65.721 102.512 67.1886 103.015C68.6561 103.519 69.9363 104.232 71.0268 105.153L68.541 108.743C66.6309 107.291 64.6576 106.569 62.6233 106.569C61.8037 106.569 61.158 106.765 60.6861 107.154Z" fill="white"/>
<path d="M80.7668 107.154C80.2949 107.542 80.0578 108.054 80.0578 108.696C80.0578 109.337 80.3468 109.845 80.9226 110.222C81.5028 110.601 82.8349 111.046 84.9211 111.561C87.0073 112.076 88.6306 112.845 89.7798 113.873C90.9358 114.902 91.5138 116.401 91.5138 118.375C91.5138 120.346 90.7733 121.944 89.2967 123.173C87.8156 124.398 85.8694 125.015 83.458 125.015C79.9743 125.015 76.8382 123.723 74.0476 121.143L76.9759 117.553C79.3466 119.63 81.5389 120.671 83.5506 120.671C84.4537 120.671 85.1627 120.477 85.6752 120.086C86.19 119.698 86.4473 119.176 86.4473 118.515C86.4473 117.853 86.1742 117.329 85.6278 116.941C85.0836 116.553 84.0022 116.16 82.3879 115.76C79.8275 115.151 77.9536 114.363 76.7682 113.385C75.5829 112.407 74.9914 110.879 74.9914 108.79C74.9914 106.702 75.7409 105.092 77.2424 103.959C78.7415 102.825 80.6132 102.259 82.8597 102.259C84.325 102.259 85.7971 102.512 87.2647 103.015C88.7345 103.519 90.0124 104.232 91.1029 105.153L88.6193 108.743C86.7047 107.291 84.7337 106.569 82.7017 106.569C81.8844 106.569 81.2386 106.765 80.7668 107.154Z" fill="white"/>
</svg>
