<svg width="153" height="189" viewBox="0 0 153 189" fill="none" xmlns="http://www.w3.org/2000/svg">
<path d="M153 0H0V189H153V0Z" fill="#F1EBE6"/>
<path d="M142.071 180.091H10.9283C10.0136 180.091 9.27246 179.379 9.27246 178.5V10.5C9.27246 9.62115 10.0136 8.90906 10.9283 8.90906H142.071C142.986 8.90906 143.727 9.62115 143.727 10.5V178.5C143.727 179.379 142.986 180.091 142.071 180.091ZM12.5841 176.909H140.415V12.0909H12.5841V176.909Z" fill="white"/>
<path d="M142.071 96.0908H10.9283C10.0136 96.0908 9.27246 95.3787 9.27246 94.4998C9.27246 93.621 10.0136 92.9089 10.9283 92.9089H142.071C142.986 92.9089 143.727 93.621 143.727 94.4998C143.727 95.3787 142.986 96.0908 142.071 96.0908Z" fill="white"/>
<path d="M76.4999 117.091C63.5347 117.091 52.9869 106.957 52.9869 94.4997C52.9869 82.0429 63.5347 71.9088 76.4999 71.9088C89.4652 71.9088 100.013 82.0429 100.013 94.4997C100.013 106.957 89.4652 117.091 76.4999 117.091ZM76.4999 75.0906C65.3614 75.0906 56.2986 83.798 56.2986 94.4997C56.2986 105.201 65.3614 113.909 76.4999 113.909C87.6385 113.909 96.7012 105.201 96.7012 94.4997C96.7012 83.798 87.6385 75.0906 76.4999 75.0906Z" fill="white"/>
<path d="M76.5006 55.0455C67.9671 55.0455 60.0879 50.5865 55.9371 43.4089C55.4933 42.6408 55.7814 41.6723 56.5808 41.2459C57.3776 40.8196 58.3884 41.0964 58.8321 41.8645C62.3988 48.0321 69.1692 51.8636 76.5006 51.8636C83.8321 51.8636 90.6025 48.0321 94.1692 41.8638C94.6136 41.0957 95.6217 40.8189 96.4204 41.2453C97.2199 41.6723 97.508 42.6402 97.0642 43.4083C92.9134 50.5865 85.0342 55.0455 76.5006 55.0455Z" fill="white"/>
<path d="M95.6159 148.591C95.0344 148.591 94.4701 148.296 94.1667 147.773C90.6 141.605 83.8303 137.773 76.4982 137.773C69.1661 137.773 62.3964 141.605 58.8297 147.773C58.3853 148.541 57.3772 148.818 56.5784 148.391C55.779 147.964 55.4908 146.996 55.9346 146.228C60.0855 139.051 67.9646 134.592 76.4982 134.592C85.0318 134.592 92.9109 139.051 97.0618 146.228C97.5056 146.996 97.2175 147.965 96.418 148.391C96.1643 148.527 95.8881 148.591 95.6159 148.591Z" fill="white"/>
<path d="M109.284 43.5909H43.7129C42.7982 43.5909 42.057 42.8788 42.057 42V10.5C42.057 9.62115 42.7982 8.90906 43.7129 8.90906C44.6275 8.90906 45.3687 9.62115 45.3687 10.5V40.4091H107.628V10.5C107.628 9.62115 108.37 8.90906 109.284 8.90906C110.199 8.90906 110.94 9.62115 110.94 10.5V42C110.94 42.8788 110.199 43.5909 109.284 43.5909Z" fill="white"/>
<path d="M98.3571 25.1109H54.6428C53.7281 25.1109 52.9869 24.3988 52.9869 23.52V10.5C52.9869 9.62115 53.7281 8.90906 54.6428 8.90906C55.5575 8.90906 56.2986 9.62115 56.2986 10.5V21.9291H96.7012V10.5C96.7012 9.62115 97.4424 8.90906 98.3571 8.90906C99.2718 8.90906 100.013 9.62115 100.013 10.5V23.52C100.013 24.3988 99.2718 25.1109 98.3571 25.1109Z" fill="white"/>
<path d="M98.3571 180.091C97.4424 180.091 96.7012 179.379 96.7012 178.5V167.071H56.2986V178.5C56.2986 179.379 55.5575 180.091 54.6428 180.091C53.7281 180.091 52.9869 179.379 52.9869 178.5V165.48C52.9869 164.601 53.7281 163.889 54.6428 163.889H98.3571C99.2718 163.889 100.013 164.601 100.013 165.48V178.5C100.013 179.379 99.2718 180.091 98.3571 180.091Z" fill="white"/>
<path d="M109.284 180.091C108.37 180.091 107.628 179.379 107.628 178.5V148.591H45.3687V178.5C45.3687 179.379 44.6275 180.091 43.7129 180.091C42.7982 180.091 42.057 179.379 42.057 178.5V147C42.057 146.121 42.7982 145.409 43.7129 145.409H109.284C110.199 145.409 110.94 146.121 110.94 147V178.5C110.94 179.379 110.199 180.091 109.284 180.091Z" fill="white"/>
</svg>
