<svg width="150" height="150" viewBox="0 0 150 150" fill="none" xmlns="http://www.w3.org/2000/svg">
<path d="M73.02 56.9551C73.02 56.4601 72.645 56.0551 72.195 56.0551H56.055C55.605 56.0551 55.23 56.4451 55.23 56.9551V59.1601C55.23 59.6551 55.605 60.0601 56.055 60.0601H72.195C72.645 60.0601 73.02 59.6701 73.02 59.1601V56.9551Z" fill="white"/>
<path d="M73.02 91.0801C73.02 90.5851 72.645 90.1801 72.195 90.1801H56.055C55.605 90.1801 55.23 90.5701 55.23 91.0801V93.2851C55.23 93.7801 55.605 94.1851 56.055 94.1851H72.195C72.645 94.1851 73.02 93.7951 73.02 93.2851V91.0801Z" fill="white"/>
<path d="M73.02 108.15C73.02 107.655 72.645 107.25 72.195 107.25H56.055C55.605 107.25 55.23 107.64 55.23 108.15V110.355C55.23 110.85 55.605 111.255 56.055 111.255H72.195C72.645 111.255 73.02 110.865 73.02 110.355V108.15Z" fill="white"/>
<path d="M73.02 74.01C73.02 73.515 72.645 73.11 72.195 73.11H56.055C55.605 73.11 55.23 73.5 55.23 74.01V76.215C55.23 76.71 55.605 77.115 56.055 77.115H72.195C72.645 77.115 73.02 76.725 73.02 76.215V74.01Z" fill="white"/>
<path d="M73.02 39.885C73.02 39.39 72.645 38.985 72.195 38.985H56.055C55.605 38.985 55.23 39.375 55.23 39.885V42.09C55.23 42.585 55.605 42.99 56.055 42.99H72.195C72.645 42.99 73.02 42.6 73.02 42.09V39.885Z" fill="white"/>
<path d="M75 1.5C34.41 1.5 1.5 34.41 1.5 75C1.5 115.59 34.41 148.5 75 148.5C115.59 148.5 148.5 115.59 148.5 75C148.5 34.41 115.59 1.5 75 1.5ZM82.8 126.48C82.8 128.475 81.3 130.125 79.485 130.125H54.915C53.085 130.125 51.6 128.475 51.6 126.48V23.52C51.6 21.525 53.1 19.875 54.915 19.875H79.5C81.33 19.875 82.815 21.525 82.815 23.52V71.43L79.455 73.275C77.73 74.235 77.73 75.75 79.455 76.695L82.8 78.54V126.48ZM98.4 81.285C98.4 83.145 97.005 83.925 95.28 82.98L84.09 76.815C82.365 75.855 82.365 74.34 84.09 73.395L95.28 67.23C97.005 66.315 98.43 67.08 98.4 68.985V81.285Z" fill="white"/>
</svg>
